HIERARCHY
ROOT Hips
{
 OFFSET 0.000000 0.000000 0.000000
 CHANNELS 6 Xposition Yposition Zposition Yrotation Xrotation Zrotation
 JOINT Chest
 {
  OFFSET 0.000000 16.280000 -0.014500
  CHANNELS 3 Yrotation Xrotation Zrotation
  JOINT Chest2
  {
   OFFSET 0.000000 10.601900 0.029500
   CHANNELS 3 Yrotation Xrotation Zrotation
   JOINT Chest3
   {
    OFFSET 0.000000 10.554800 0.000000
    CHANNELS 3 Yrotation Xrotation Zrotation
    JOINT Chest4
    {
     OFFSET 0.000000 10.544000 0.000000
     CHANNELS 3 Yrotation Xrotation Zrotation
     JOINT Neck
     {
      OFFSET 0.000000 16.186500 0.000000
      CHANNELS 3 Yrotation Xrotation Zrotation
      JOINT Head
      {
       OFFSET 0.000000 9.876700 0.062400
       CHANNELS 3 Yrotation Xrotation Zrotation
       End Site
       {
        OFFSET 0.000000 18.635100 0.032900
       }
      }
     }
     JOINT RightCollar
     {
      OFFSET -3.550000 10.761000 0.000000
      CHANNELS 3 Yrotation Xrotation Zrotation
      JOINT RightShoulder
      {
       OFFSET -16.915100 0.000000 0.000000
       CHANNELS 3 Yrotation Xrotation Zrotation
       JOINT RightElbow
       {
        OFFSET 0.000000 -31.241900 0.000000
        CHANNELS 3 Yrotation Xrotation Zrotation
        JOINT RightWrist
        {
         OFFSET 0.000000 -25.690800 0.013700
         CHANNELS 3 Yrotation Xrotation Zrotation
         End Site
         {
          OFFSET 0.000000 -19.336200 0.000000
         }
        }
       }
      }
     }
     JOINT LeftCollar
     {
      OFFSET 3.550000 10.761000 0.000000
      CHANNELS 3 Yrotation Xrotation Zrotation
      JOINT LeftShoulder
      {
       OFFSET 16.915100 0.000000 0.000000
       CHANNELS 3 Yrotation Xrotation Zrotation
       JOINT LeftElbow
       {
        OFFSET 0.000000 -31.241900 0.000000
        CHANNELS 3 Yrotation Xrotation Zrotation
        JOINT LeftWrist
        {
         OFFSET 0.000000 -25.690800 0.013700
         CHANNELS 3 Yrotation Xrotation Zrotation
         End Site
         {
          OFFSET 0.000000 -19.336200 0.000000
         }
        }
       }
      }
     }
    }
   }
  }
 }
 JOINT RightHip
 {
  OFFSET -13.350800 0.071600 0.007200
  CHANNELS 3 Yrotation Xrotation Zrotation
  JOINT RightKnee
  {
   OFFSET 0.000000 -49.946400 0.002700
   CHANNELS 3 Yrotation Xrotation Zrotation
   JOINT RightAnkle
   {
    OFFSET 0.000000 -42.233900 0.021900
    CHANNELS 3 Yrotation Xrotation Zrotation
    JOINT RightToe
    {
     OFFSET 0.000000 -11.862800 19.724700
     CHANNELS 3 Yrotation Xrotation Zrotation
     End Site
     {
      OFFSET 0.000000 -1.715400 7.529500
     }
    }
   }
  }
 }
 JOINT LeftHip
 {
  OFFSET 13.350800 0.071600 0.007200
  CHANNELS 3 Yrotation Xrotation Zrotation
  JOINT LeftKnee
  {
   OFFSET 0.000000 -49.946400 0.002700
   CHANNELS 3 Yrotation Xrotation Zrotation
   JOINT LeftAnkle
   {
    OFFSET 0.000000 -42.233900 0.021900
    CHANNELS 3 Yrotation Xrotation Zrotation
    JOINT LeftToe
    {
     OFFSET 0.000000 -11.862800 19.724700
     CHANNELS 3 Yrotation Xrotation Zrotation
     End Site
     {
      OFFSET 0.000000 -1.715400 7.529500
     }
    }
   }
  }
 }
}
MOTION
Frames: 12
Frame Time: 0.008333
0.000000 103.775900 0.000000 0.000000 -5.767877 0.000000 0.000000 11.653817 0.000000 0.000000 -5.885947 0.000000 0.000000 -0.000000 0.000000 0.000000 -0.000000 0.000000 0.000000 12.528835 0.000000 0.000000 0.711642 0.000000 0.000000 -0.000000 0.000000 0.000000 0.000000 -90.000000 0.000000 -2.309062 0.000000 0.000000 2.309062 0.000000 0.000000 -0.000000 0.000000 0.000000 -0.000000 90.000000 0.000000 -2.309062 0.000000 0.000000 2.309062 0.000000 0.000000 8.520406 0.000000 0.000000 1.905762 0.000000 -0.000000 -4.658285 0.000000 0.000000 -0.000000 0.000000 0.000000 8.520406 0.000000 0.000000 1.905762 0.000000 -0.000000 -4.658285 0.000000 0.000000 -0.000000 0.000000
45.343877 153.593468 40.046418 -178.769119 -18.766696 -3.293391 -3.965224 7.701780 1.793328 -0.214880 0.409961 0.123488 -0.378952 0.705322 0.211327 -3.646178 7.221796 1.942179 -3.925138 20.683859 0.321872 -4.286224 -3.666249 1.244444 4.229193 4.248299 -4.337405 17.175507 -11.986855 -6.811379 41.173431 -33.502388 -20.918663 -7.866771 -5.082910 -24.244956 -0.382465 7.021461 0.385936 -4.806410 -11.049676 -1.799943 -43.430231 -32.529754 30.819559 -9.424294 3.299856 16.984101 -1.882040 -51.015737 0.589826 -169.164587 71.539168 -158.774030 -0.261947 -36.848480 -3.588743 0.106695 -0.215597 0.052356 -7.233641 -49.050619 4.592550 158.104797 68.658410 154.825271 0.556526 -37.945562 -2.543676 0.114526 0.229716 0.067671
48.975853 146.193340 39.297308 -178.800155 -18.762469 -3.378862 -3.936275 7.692179 1.884437 -0.208179 0.413695 0.124974 -0.375884 0.708613 0.212216 -3.645524 7.222022 1.941619 -3.924108 20.683823 0.322346 -4.289317 -3.675773 1.247067 4.231743 4.231793 -4.341872 17.187447 -11.980231 -6.813717 41.166030 -33.480499 -20.890825 -7.881139 -5.094744 -24.257337 -0.377953 7.006875 0.387335 -4.802433 -11.035002 -1.800096 -43.429357 -32.526914 30.808088 -9.427336 3.298985 16.986067 -1.969616 -51.035663 0.740673 -169.188317 71.510245 -158.791488 -0.195090 -36.931148 -3.603592 0.059412 -0.137364 0.035717 -7.317030 -49.032021 4.745207 158.091830 68.689926 154.808870 0.616901 -37.840190 -2.547023 0.064179 0.144736 0.038618
51.967567 140.099637 38.678706 -178.819386 -18.763154 -3.452800 -3.915064 7.692858 1.962257 -0.214985 0.407800 0.122924 -0.364202 0.715875 0.214874 -3.652498 7.210106 1.938594 -3.921890 20.684840 0.322941 -4.287664 -3.672151 1.247170 4.245641 4.225615 -4.340589 17.190889 -11.967034 -6.810973 41.158792 -33.468004 -20.875815 -7.887526 -5.101567 -24.262868 -0.364815 7.000361 0.391257 -4.793766 -11.027475 -1.804658 -43.441138 -32.505053 30.785010 -9.415663 3.294884 17.000252 -2.049923 -51.044766 0.864476 -169.219707 71.489035 -158.816331 -0.141672 -37.000007 -3.618953 0.023683 -0.075964 0.014238 -7.393381 -49.011447 4.869721 158.087177 68.712947 154.805246 0.666505 -37.756689 -2.555416 0.029100 0.074725 0.017508
54.124137 135.698159 38.231969 -178.820499 -18.759824 -3.494387 -3.913543 7.686444 2.002741 -0.214888 0.406966 0.122730 -0.373060 0.707837 0.212326 -3.653729 7.211795 1.939360 -3.918469 20.686487 0.322310 -4.281553 -3.670213 1.243496 4.282106 4.192442 -4.352655 17.169653 -11.927268 -6.783383 41.166473 -33.456218 -20.864135 -7.887719 -5.103853 -24.267662 -0.348554 7.006231 0.392530 -4.793511 -11.021146 -1.806697 -43.446968 -32.494915 30.777724 -9.399119 3.296847 17.010327 -2.101103 -51.054636 0.932304 -169.225355 71.474185 -158.819373 -0.120434 -37.036355 -3.631010 0.012683 -0.044828 0.007626 -7.441795 -49.001271 4.934823 158.087045 68.729144 154.807352 0.685722 -37.713097 -2.561131 0.018177 0.038299 0.010935
55.488467 132.918692 37.947733 -178.822776 -18.760660 -3.526407 -3.909585 7.682246 2.034274 -0.214754 0.406043 0.122434 -0.372948 0.706250 0.211862 -3.655379 7.204441 1.939923 -3.919303 20.689884 0.321242 -4.279965 -3.665600 1.240123 4.291166 4.190953 -4.358137 17.172846 -11.920143 -6.777435 41.167307 -33.439753 -20.839910 -7.902372 -5.108047 -24.279755 -0.344272 7.015200 0.394565 -4.787357 -11.016231 -1.809385 -43.454886 -32.487255 30.768791 -9.396874 3.297065 17.005143 -2.139176 -51.057872 0.986675 -169.221761 71.460105 -158.816261 -0.103109 -37.067279 -3.636254 0.003173 -0.017845 0.001908 -7.477496 -48.990133 4.984685 158.085030 68.739965 154.807013 0.701882 -37.677110 -2.566035 0.005831 0.009872 0.003507
56.237084 131.389317 37.790864 -178.823096 -18.755137 -3.535658 -3.910552 7.671908 2.043355 -0.214946 0.403180 0.122743 -0.372807 0.704341 0.211297 -3.659178 7.196414 1.933134 -3.917038 20.693820 0.322008 -4.275840 -3.656030 1.238950 4.298271 4.202337 -4.353044 17.176372 -11.922559 -6.778772 41.167183 -33.424746 -20.818111 -7.894188 -5.104871 -24.278009 -0.333090 7.017108 0.402595 -4.792585 -11.005438 -1.809438 -43.451966 -32.483262 30.760243 -9.400341 3.298278 17.001913 -2.151492 -51.064762 1.003534 -169.224091 71.458591 -158.818682 -0.102868 -37.071334 -3.640311 0.002538 -0.009515 0.001526 -7.488301 -48.988600 4.998771 158.092215 68.750107 154.814647 0.706555 -37.663285 -2.562846 0.004999 0.003089 0.003007
56.593603 130.660324 37.714649 -178.823496 -18.745553 -3.537206 -3.911371 7.660675 2.045635 -0.215636 0.396964 0.123633 -0.372637 0.701966 0.210670 -3.668272 7.160668 1.929250 -3.910093 20.726215 0.319009 -4.273503 -3.643783 1.234310 4.319236 4.217291 -4.357074 17.177087 -11.905609 -6.768155 41.152721 -33.406236 -20.789331 -7.894372 -5.107709 -24.280338 -0.323525 7.039929 0.406632 -4.784607 -11.000224 -1.815583 -43.454124 -32.458706 30.734279 -9.394080 3.292863 17.013153 -2.154557 -51.074572 1.006482 -169.213683 71.457177 -158.807255 -0.098209 -37.072609 -3.644088 0.004812 -0.006708 0.002894 -7.489018 -48.992352 4.998759 158.097088 68.759764 154.819743 0.710027 -37.654830 -2.558656 0.003524 0.001366 0.002119
56.739679 130.360966 37.681110 -178.825432 -18.730938 -3.534705 -3.911900 7.638864 2.047089 -0.215924 0.396547 0.120405 -0.371596 0.701700 0.211127 -3.673233 7.140071 1.924966 -3.909099 20.734529 0.316340 -4.265463 -3.623243 1.229706 4.337134 4.214548 -4.365288 17.186904 -11.898392 -6.759116 41.120002 -33.381792 -20.744673 -7.898986 -5.108245 -24.285156 -0.314705 7.036657 0.413070 -4.781744 -10.980228 -1.825115 -43.455876 -32.435559 30.713684 -9.387789 3.285265 17.025491 -2.154507 -51.087870 1.005092 -169.191491 71.457566 -158.784580 -0.092890 -37.072308 -3.648523 0.007384 -0.005410 0.004441 -7.490025 -49.001544 4.993412 158.081340 68.764023 154.801075 0.713185 -37.650252 -2.558192 -0.000426 0.001774 -0.000256
56.790878 130.254787 37.666852 -178.825833 -18.705851 -3.531349 -3.916182 7.606029 2.043356 -0.215026 0.398792 0.120118 -0.369840 0.704613 0.212877 -3.675723 7.127174 1.922166 -3.906182 20.742844 0.316317 -4.256666 -3.614397 1.225017 4.360323 4.162353 -4.401092 17.168931 -11.849394 -6.704002 41.107553 -33.366006 -20.711253 -7.908499 -5.102443 -24.293642 -0.292617 6.974538 0.421804 -4.791155 -10.917313 -1.840823 -43.459326 -32.419372 30.701940 -9.388988 3.286427 17.017028 -2.154827 -51.111585 0.996949 -169.183258 71.459032 -158.773768 -0.085677 -37.070226 -3.654901 0.007139 -0.006247 0.004293 -7.497713 -49.024851 4.994992 158.089184 68.776246 154.804222 0.717601 -37.638367 -2.555224 -0.000438 0.001105 -0.000263
56.806839 130.221386 37.657292 -178.829164 -18.675229 -3.528400 -3.916794 7.572767 2.041668 -0.214020 0.399474 0.120793 -0.371854 0.695265 0.208976 -3.681244 7.086467 1.916408 -3.896570 20.777763 0.316003 -4.247020 -3.589477 1.225110 4.379449 4.171866 -4.409883 17.158015 -11.816129 -6.671021 41.103179 -33.354919 -20.675307 -7.914454 -5.103494 -24.317540 -0.278588 7.004925 0.431945 -4.782239 -10.913167 -1.849581 -43.464435 -32.404320 30.667286 -9.390475 3.293726 17.025863 -2.135983 -51.139475 0.969646 -169.220051 71.464091 -158.796821 -0.075393 -37.068770 -3.661431 0.000023 -0.008799 0.000014 -7.510770 -49.052736 5.007547 158.099325 68.780144 154.803600 0.712180 -37.636004 -2.548184 -0.000757 -0.003726 -0.000455
56.812929 130.209874 37.647673 -178.836039 -18.633221 -3.528115 -3.914476 7.524173 2.041598 -0.213611 0.396701 0.120094 -0.370868 0.690187 0.208170 -3.688464 7.033010 1.913646 -3.886550 20.825872 0.314614 -4.240953 -3.551633 1.224485 4.397342 4.188343 -4.420020 17.166752 -11.786597 -6.641960 41.069392 -33.340822 -20.612215 -7.914977 -5.100101 -24.351235 -0.265104 7.048781 0.439617 -4.774868 -10.903347 -1.857560 -43.468719 -32.395862 30.641730 -9.379355 3.297764 17.018215 -2.121324 -51.177356 0.957399 -169.235106 71.469890 -158.798822 -0.070388 -37.068735 -3.666552 -0.002959 -0.010413 -0.001779 -7.535286 -49.089977 5.035364 158.116269 68.788068 154.803883 0.711955 -37.631259 -2.543831 -0.000635 -0.006061 -0.000382
